<?xml version="1.0" encoding="utf-8"?>
<!-- Generator: Adobe Illustrator 20.1.0, SVG Export Plug-In . SVG Version: 6.00 Build 0)  -->
<svg version="1.1" id="Layer_1" xmlns="http://www.w3.org/2000/svg" xmlns:xlink="http://www.w3.org/1999/xlink" x="0px" y="0px"
	 viewBox="0 0 49.1 49.1" enable-background="new 0 0 49.1 49.1" xml:space="preserve">
<title>ICONS</title>
<g>
	<path fill="none" d="M11.8,29.8c0.7,0,1.2-0.5,1.2-1.2c0-0.1,0-0.2,0-0.3L12.4,29l0,0l0,0l0,0c0,0-0.1,0.1-0.1,0.1l-0.1,0l-0.1,0h0
		h0c0,0-0.1,0-0.1,0l0,0c0,0-0.1,0-0.1,0h-0.1h0h-0.1h0l-0.1,0h0l-0.1-0.1l0,0l0,0L11.3,29l0,0c0,0,0-0.1-0.1-0.1l0,0l0,0l-0.5-0.8
		c-0.3,0.6,0,1.3,0.6,1.6C11.5,29.8,11.7,29.8,11.8,29.8L11.8,29.8z"/>
	<path fill="none" d="M23.9,27.3c-0.7,0-1.2,0.6-1.2,1.2c0,0.6,0.5,1.1,1.1,1.2l-0.5-0.8c-0.2-0.4,0-0.8,0.3-1
		c0.3-0.2,0.7-0.1,0.9,0.2L25,29c0.3-0.6,0-1.3-0.7-1.6C24.2,27.4,24.1,27.3,23.9,27.3z"/>
	<path fill="none" d="M9,22.2l2.2,3.8c0.6-0.1,1.1-0.1,1.7,0.1l2.7-3.4C13.5,21.5,11.1,21.3,9,22.2L9,22.2z"/>
	<path fill="none" d="M19.6,25.6c0.3,0.7,0.5,1.5,0.5,2.3h1.2c0.1-0.4,0.4-0.9,0.7-1.2l-0.7-1.8C20.8,25.1,20.2,25.3,19.6,25.6z"/>
	<path fill="none" d="M17.6,24.8c-0.3-0.4-0.6-0.8-1-1.2l-1.6,2C15.9,25.3,16.8,25.1,17.6,24.8z"/>
	<path fill="none" d="M37.4,25.9c1.5,0,2.7,1.2,2.7,2.7c0,1.5-1.2,2.7-2.7,2.7c-1.5,0-2.7-1.2-2.7-2.7c0-0.8,0.4-1.6,1-2.1l-1.7-4
		c-3.3,1.9-4.5,6-2.6,9.4c1.9,3.3,6,4.5,9.4,2.6c3.3-1.9,4.5-6,2.6-9.4c-1.6-2.8-4.9-4.2-8-3.2l1.7,4C37.1,25.9,37.2,25.9,37.4,25.9
		z M40.7,33c-0.4,0-0.7-0.3-0.7-0.7c0-0.4,0.3-0.7,0.7-0.7c0.4,0,0.7,0.3,0.7,0.7C41.5,32.7,41.1,33,40.7,33L40.7,33z M38.8,23.7
		c0.2-0.4,0.6-0.5,0.9-0.4c2.9,1.3,4.1,4.8,2.8,7.6c-0.2,0.4-0.6,0.5-1,0.3c-0.3-0.2-0.5-0.6-0.3-0.9c1-2.2,0.1-4.7-2.1-5.7
		C38.8,24.5,38.6,24,38.8,23.7z"/>
	<circle fill="none" cx="37.4" cy="28.6" r="1.2"/>
	<path fill="none" d="M18.3,26.1c-1.4,0.5-2.7,0.9-4.1,1.2c0.1,0.2,0.2,0.3,0.2,0.5h4.3C18.6,27.2,18.5,26.6,18.3,26.1z"/>
	<path fill="none" d="M23.9,25.9c0.4,0,0.8,0.1,1.2,0.3l7.1-7.9L32,17.9l-1.9,1.6c-2.3,1.8-4.8,3.4-7.4,4.7l0.7,1.7
		C23.5,25.9,23.7,25.9,23.9,25.9z"/>
	<path fill="none" d="M17.5,22.4c0.6,0.5,1.1,1.2,1.5,1.8c0.6-0.2,1.2-0.5,1.8-0.8L19.4,20L17.5,22.4z"/>
	<path fill="none" d="M16.4,21.5l1.6-2H7.4L8.3,21C10.9,19.7,14,19.9,16.4,21.5L16.4,21.5z"/>
	<path fill="none" d="M11.8,35.5c3.5,0,6.5-2.7,6.9-6.2h-4.3c-0.4,1.4-1.9,2.2-3.3,1.8s-2.2-1.9-1.8-3.3c0.1-0.4,0.3-0.8,0.6-1.1
		l-2.2-3.8c-3.1,2.2-3.8,6.6-1.5,9.7C7.5,34.4,9.6,35.5,11.8,35.5L11.8,35.5z M9.3,32c0.9,0.7,2.1,0.9,3.2,0.8
		c0.4,0,0.7,0.3,0.7,0.7c0,0.3-0.2,0.6-0.5,0.7c-0.3,0.1-0.6,0.1-0.9,0.1c-2.8,0-5.2-2.1-5.7-4.8c-0.1-0.4,0.1-0.8,0.5-0.9
		c0.4-0.1,0.8,0.1,0.9,0.5c0,0.1,0,0.2,0,0.2C7.7,30.4,8.3,31.4,9.3,32z M6.5,26.7c0.3-0.2,0.8-0.1,1,0.2c0.2,0.3,0.1,0.8-0.2,1
		c-0.3,0.2-0.8,0.1-1-0.2c0,0,0,0,0,0C6.1,27.4,6.2,26.9,6.5,26.7z"/>
	<path fill="#231F20" d="M3.4,28.6c0,4.6,3.8,8.4,8.4,8.4c4.3,0,7.9-3.3,8.3-7.6h1.2c0.4,1.4,1.9,2.2,3.3,1.8l0.4,0.6h-0.1
		c-0.4,0-0.7,0.3-0.7,0.7c0,0.4,0.3,0.7,0.7,0.7h2.3c0.4,0,0.7-0.3,0.7-0.7c0-0.4-0.3-0.7-0.7-0.7h-0.5l-0.8-1.3
		c0.8-0.9,1-2.2,0.3-3.2l6.6-7.4l0.6,1.4c-4.1,2.2-5.6,7.3-3.4,11.3s7.3,5.6,11.3,3.4c4.1-2.2,5.6-7.3,3.4-11.3
		c-1.9-3.6-6.1-5.3-10-4l-3.3-7.8l2.2-2.5c0.3-0.3,0.2-0.8-0.1-1c-0.1-0.1-0.1-0.1-0.2-0.1l-3.1-1.3c-0.1-0.3-0.3-0.6-0.7-0.7
		l-2.1-0.8c-0.5-0.3-1.2-0.1-1.5,0.5c-0.3,0.5-0.1,1.2,0.5,1.5c0.1,0,0.2,0.1,0.3,0.1l2.1,0.8c0.3,0.1,0.7,0.1,0.9-0.1l2.2,0.9
		L30,12.2c-0.2,0.2-0.2,0.5-0.1,0.8l1.5,3.6l-2.3,1.8c-2.2,1.8-4.5,3.3-7.1,4.5l-3.9-9.5h0.7c0.5,0,0.9,0.2,1.2,0.6
		c0.2,0.3,0.7,0.4,1,0.2c0.3-0.2,0.4-0.7,0.2-1c-0.6-0.8-1.4-1.2-2.4-1.2h-3c-0.5,0-0.9-0.2-1.2-0.6c-0.2-0.3-0.7-0.4-1-0.2
		c-0.3,0.2-0.4,0.7-0.2,1c0.6,0.8,1.4,1.2,2.4,1.2h0.7l1.9,4.7H4.7c-0.4,0-0.7,0.3-0.7,0.7s0.3,0.7,0.7,0.7h1L7,21.7
		C4.8,23.3,3.4,25.8,3.4,28.6z M37.4,21.6c3.8,0,7,3.1,7,6.9c0,3.8-3.1,7-6.9,7c-3.8,0-7-3.1-7-6.9c0-2.5,1.3-4.8,3.5-6.1l1.7,4
		c-1.2,0.9-1.4,2.6-0.4,3.8c0.9,1.2,2.6,1.4,3.8,0.4c1.2-0.9,1.4-2.6,0.4-3.8c-0.6-0.7-1.5-1.1-2.5-1l-1.7-4
		C36,21.7,36.7,21.6,37.4,21.6z M37.4,27.3c0.7,0,1.2,0.5,1.2,1.2c0,0.7-0.5,1.2-1.2,1.2c-0.7,0-1.2-0.5-1.2-1.2l0,0
		C36.1,27.9,36.7,27.3,37.4,27.3L37.4,27.3z M14.4,27.8c-0.1-0.2-0.1-0.4-0.2-0.5c1.4-0.3,2.8-0.7,4.1-1.2c0.2,0.6,0.4,1.1,0.4,1.7
		L14.4,27.8z M17.6,24.7c-0.8,0.3-1.7,0.6-2.6,0.8l1.6-2C17,23.9,17.3,24.3,17.6,24.7L17.6,24.7z M12.8,26.1
		c-0.5-0.2-1.1-0.3-1.7-0.1L9,22.2c2.1-0.9,4.5-0.8,6.5,0.5L12.8,26.1z M10.7,28.1l0.5,0.8l0,0l0,0c0,0,0,0.1,0.1,0.1l0,0l0.1,0.1
		l0,0l0,0l0.1,0.1h0l0.1,0h0h0.1h0h0.1c0,0,0.1,0,0.1,0l0,0c0,0,0.1,0,0.1,0h0h0l0.1,0l0.1,0c0,0,0.1-0.1,0.1-0.1l0,0l0,0l0,0
		l0.6-0.8c0.2,0.6-0.2,1.3-0.9,1.5c-0.6,0.2-1.3-0.2-1.5-0.9C10.5,28.6,10.6,28.4,10.7,28.1L10.7,28.1z M21.4,27.8h-1.2
		c-0.1-0.8-0.2-1.5-0.5-2.3c0.6-0.2,1.1-0.5,1.7-0.7l0.7,1.8C21.7,27,21.5,27.4,21.4,27.8L21.4,27.8z M24.5,28.2
		c-0.2-0.3-0.7-0.5-1-0.2c-0.3,0.2-0.5,0.7-0.2,1l0.5,0.8c-0.7-0.1-1.2-0.7-1.1-1.3s0.7-1.2,1.3-1.1c0.7,0.1,1.2,0.7,1.1,1.3
		c0,0.1,0,0.2-0.1,0.3L24.5,28.2z M30.1,19.5l1.9-1.6l0.2,0.4l-7.1,7.8c-0.5-0.3-1.2-0.3-1.7-0.2l-0.7-1.7
		C25.3,22.9,27.8,21.3,30.1,19.5z M19,24.3c-0.4-0.7-0.9-1.3-1.5-1.8l1.9-2.4l1.4,3.4C20.2,23.8,19.6,24,19,24.3z M7.4,19.5H18
		l-1.6,2C14,20,10.9,19.7,8.3,21L7.4,19.5z M7.7,22.9l2.2,3.8c-1,1.1-1,2.7,0.1,3.8c1.1,1,2.7,1,3.8-0.1c0.3-0.3,0.5-0.7,0.6-1.1
		h4.3c-0.4,3.8-3.8,6.6-7.6,6.2c-3.8-0.4-6.6-3.8-6.2-7.6C5.1,25.9,6.1,24.1,7.7,22.9L7.7,22.9z"/>
	<path fill="#231F20" d="M39.1,24.6c2.2,1,3.1,3.6,2.1,5.7c0,0,0,0,0,0c-0.2,0.4,0,0.8,0.3,1c0.4,0.2,0.8,0,1-0.3c0,0,0,0,0,0
		c1.3-2.9,0.1-6.3-2.8-7.6c-0.4-0.2-0.8,0-1,0.3C38.6,24,38.8,24.5,39.1,24.6z"/>
	<circle fill="#231F20" cx="40.7" cy="32.3" r="0.7"/>
	<path fill="#231F20" d="M6.7,28.7c-0.4,0.1-0.7,0.4-0.6,0.8c0,0,0,0,0,0c0.5,2.8,2.9,4.8,5.7,4.8c0.3,0,0.6,0,0.9-0.1
		c0.4-0.1,0.6-0.5,0.5-0.9c-0.1-0.3-0.4-0.5-0.7-0.5c-2.4,0.4-4.6-1.2-5-3.6c0,0,0,0,0,0C7.5,28.9,7.1,28.6,6.7,28.7z"/>
	<path fill="#231F20" d="M6.9,28c0.4,0,0.7-0.3,0.7-0.7c0-0.4-0.3-0.7-0.7-0.7c-0.4,0-0.7,0.3-0.7,0.7c0,0.1,0,0.3,0.1,0.4
		C6.4,27.9,6.7,28,6.9,28z"/>
</g>
<circle fill="none" stroke="#000000" stroke-width="1.4" stroke-miterlimit="10" cx="24.6" cy="24.6" r="23.9"/>
</svg>
