<?xml version="1.0" encoding="utf-8"?>
<!-- Generator: Adobe Illustrator 20.1.0, SVG Export Plug-In . SVG Version: 6.00 Build 0)  -->
<svg version="1.1" id="Layer_1" xmlns="http://www.w3.org/2000/svg" xmlns:xlink="http://www.w3.org/1999/xlink" x="0px" y="0px"
	 viewBox="0 0 60 30" enable-background="new 0 0 60 30" xml:space="preserve">
<g>
	<path d="M27.8,10.6c0-0.1,0.1-0.2,0.1-0.3c0.1-0.3,0.1-0.6,0.1-0.9c0-1.8-1.5-3.2-3.2-3.2c-1.8,0-3.2,1.5-3.2,3.2
		c0,0.3,0,0.6,0.1,0.9c0,0.1,0.1,0.2,0.1,0.3l0.1,0.2l2.9,5.4l2.5-4.6c0.5,0.2,1.7,0.7,2.1,1.6c0.2,0.5,0.1,1-0.3,1.6
		c-0.9,1.3-1,2.6-0.4,3.6c0.5,0.8,1.6,1.2,2.9,1.2c0.5,0,1-0.1,1.6-0.2l2,3.7l2.9-5.4l0.1-0.2c0-0.1,0.1-0.2,0.1-0.3
		c0.1-0.3,0.1-0.6,0.1-0.9c0-1.8-1.5-3.2-3.2-3.2c-1.8,0-3.2,1.5-3.2,3.2c0,0.3,0,0.6,0.1,0.9c0,0.1,0.1,0.2,0.1,0.3l0.1,0.2l0.6,1
		c-1.7,0.3-2.9,0-3.5-0.8c-0.4-0.7-0.3-1.6,0.4-2.7c0.5-0.8,0.6-1.5,0.4-2.2c-0.4-1.1-1.8-1.8-2.4-2l0.1-0.1L27.8,10.6z M32.7,16.2
		c0-1.4,1.1-2.5,2.5-2.5c1.4,0,2.5,1.1,2.5,2.5c0,0.2,0,0.4-0.1,0.7c0,0.1-0.1,0.2-0.1,0.2l-0.1,0.2l-2.2,4.1L33,17.3l-0.1-0.2
		c0-0.1-0.1-0.2-0.1-0.2C32.7,16.6,32.7,16.4,32.7,16.2z M24.8,14.6l-2.2-4.1l-0.1-0.2c0-0.1-0.1-0.2-0.1-0.2
		c-0.1-0.2-0.1-0.4-0.1-0.7c0-1.4,1.1-2.5,2.5-2.5c1.4,0,2.5,1.1,2.5,2.5c0,0.2,0,0.4-0.1,0.7c0,0.1-0.1,0.2-0.1,0.2L27,10.4
		L24.8,14.6z"/>
	<path d="M24.8,7.9c-0.8,0-1.4,0.6-1.4,1.4c0,0.8,0.6,1.4,1.4,1.4c0.8,0,1.4-0.6,1.4-1.4C26.2,8.5,25.6,7.9,24.8,7.9z M24.8,10
		c-0.4,0-0.7-0.3-0.7-0.7s0.3-0.7,0.7-0.7c0.4,0,0.7,0.3,0.7,0.7C25.5,9.7,25.2,10,24.8,10z"/>
	<path d="M35.2,17.6c0.8,0,1.4-0.6,1.4-1.4c0-0.8-0.6-1.4-1.4-1.4c-0.8,0-1.4,0.6-1.4,1.4C33.8,16.9,34.4,17.6,35.2,17.6z
		 M35.2,15.5c0.4,0,0.7,0.3,0.7,0.7c0,0.4-0.3,0.7-0.7,0.7c-0.4,0-0.7-0.3-0.7-0.7C34.5,15.8,34.8,15.5,35.2,15.5z"/>
</g>
<polygon points="4.3,15.9 0.5,12.1 0,12.7 4.3,17 8.6,12.7 8.1,12.2 "/>
<polygon points="55.7,15.9 51.9,12.1 51.4,12.7 55.7,17 60,12.7 59.5,12.2 "/>
</svg>
