<svg xmlns="http://www.w3.org/2000/svg" xmlns:xlink="http://www.w3.org/1999/xlink" version="1.1" x="0px" y="0px" viewBox="0 0 91 91" enable-background="new 0 0 91 91" xml:space="preserve"><g><path d="M28.379,33.264v9.996c0,1.387,1.125,2.512,2.512,2.512c1.389,0,2.514-1.125,2.514-2.512v-9.996   c0-5.117,4.164-9.281,9.283-9.281h5.186c5.117,0,9.279,4.164,9.279,9.281v9.996c0,1.387,1.125,2.512,2.512,2.512   c1.389,0,2.514-1.125,2.514-2.512v-9.996c0-5.762-3.432-10.729-8.352-12.992c1.979-2.105,3.203-4.93,3.203-8.039   c0-6.479-5.271-11.75-11.748-11.75c-6.48,0-11.752,5.271-11.752,11.75c0,3.109,1.225,5.934,3.205,8.037   C31.811,22.535,28.379,27.502,28.379,33.264z M45.281,5.508c3.707,0,6.723,3.016,6.723,6.725c0,3.707-3.016,6.725-6.723,6.725   c-3.709,0-6.727-3.018-6.727-6.725C38.555,8.523,41.572,5.508,45.281,5.508z"></path><path d="M82.959,63.148h-4.104c-1.604-7.025-10.467-12.65-23.293-14.707V34.406c0-1.387-1.125-2.512-2.514-2.512   c-1.387,0-2.512,1.125-2.512,2.512v29.893c0,0.746-0.629,1.375-1.375,1.375c-0.74,0-1.365-0.625-1.369-1.369   c0-0.002,0-0.004,0-0.006v-16.07c0-1.389-1.125-2.514-2.512-2.514c0,0,0,0-0.002,0c-1.387,0-2.512,1.125-2.512,2.514v16.07   c0,0.002,0,0.004,0,0.006c-0.004,0.744-0.629,1.369-1.371,1.369c-0.744,0-1.373-0.629-1.373-1.375V34.406   c0-1.387-1.125-2.512-2.512-2.512c-1.389,0-2.514,1.125-2.514,2.512v14.035c-12.828,2.057-21.689,7.682-23.293,14.707H7.947   c-1.387,0-2.512,1.125-2.512,2.512c0,1.389,1.125,2.514,2.512,2.514h3.867c2.289,8.24,14.912,14.473,30.953,15.066v5.064   c0,1.387,1.125,2.512,2.514,2.512c1.387,0,2.512-1.125,2.512-2.512V83.24c16.041-0.594,28.664-6.826,30.953-15.066h4.213   c1.387,0,2.512-1.125,2.512-2.514C85.471,64.273,84.346,63.148,82.959,63.148z M65.879,68.174h7.453   c-2.689,4.889-12.35,9.51-25.539,10.039v-2.441c0-1.389-1.125-2.514-2.512-2.514c-1.389,0-2.514,1.125-2.514,2.514v2.441   c-13.189-0.527-22.85-5.15-25.539-10.039h7.793c1.387,0,2.512-1.125,2.512-2.514c0-1.387-1.125-2.512-2.512-2.512h-8.014   c1.91-4.225,8.863-7.957,17.99-9.594v10.744c0,3.529,2.871,6.4,6.398,6.4c1.461,0,2.805-0.498,3.883-1.326   c1.078,0.828,2.422,1.326,3.883,1.326c3.529,0,6.4-2.871,6.4-6.4V53.555c9.129,1.637,16.08,5.369,17.99,9.594h-7.674   c-1.389,0-2.514,1.125-2.514,2.512C63.365,67.049,64.49,68.174,65.879,68.174z"></path></g></svg>