<?xml version="1.0" encoding="UTF-8"?>
<svg width="64px" height="64px" viewBox="0 0 64 64" version="1.1" xmlns="http://www.w3.org/2000/svg" xmlns:xlink="http://www.w3.org/1999/xlink">
    <!-- Generator: Sketch 52.2 (67145) - http://www.bohemiancoding.com/sketch -->
    <title>Untitled 4</title>
    <desc>Created with Sketch.</desc>
    <g id="Page-1" stroke="none" stroke-width="1" fill="none" fill-rule="evenodd">
        <g id="u-turn" transform="translate(32.000000, 32.000000) scale(1, -1) translate(-32.000000, -32.000000) " fill="#000000">
            <path d="M0,52.9 C0,53 0,53 0,53.1 C0,53.1 0,53.1 0,53.1 C0,53.2 0,53.2 0.1,53.3 C0.1,53.4 0.1,53.4 0.2,53.5 C0.2,53.5 0.2,53.5 0.2,53.5 C0.2,53.6 0.3,53.6 0.3,53.7 C0.3,53.7 0.3,53.8 0.4,53.8 C0.4,53.8 0.4,53.8 0.4,53.8 C0.4,53.8 0.4,53.8 0.4,53.8 C0.4,53.9 0.5,53.9 0.6,54 C0.6,54 0.7,54.1 0.7,54.1 C0.7,54.1 0.7,54.1 0.8,54.1 C0.8,54.1 0.9,54.2 0.9,54.2 C0.9,54.2 1,54.3 1,54.3 C1,54.3 1,54.3 1,54.3 L13.7,62.8 C14,63 14.4,63.1 14.8,63.1 C15.4,63.1 16.1,62.8 16.5,62.2 C17.1,61.3 16.9,60 15.9,59.4 L8.7,54.6 L37,54.6 C37,54.6 37,54.6 37,54.6 C51.9,54.6 64,42.5 64,27.6 C64,12.7 51.9,0.6 37,0.6 L22,0.6 C20.9,0.6 20,1.5 20,2.6 C20,3.7 20.9,4.6 22,4.6 L37,4.6 C49.7,4.6 60,14.9 60,27.6 C60,40.3 49.7,50.6 37,50.6 C37,50.6 37,50.6 37,50.6 L8.6,50.6 L15.8,45.8 C16.7,45.2 17,43.9 16.4,43 C15.8,42.1 14.5,41.8 13.6,42.4 L0.9,50.9 C0.9,50.9 0.9,50.9 0.9,50.9 C0.9,50.9 0.9,50.9 0.9,50.9 C0.9,50.9 0.8,51 0.8,51 C0.7,51 0.7,51.1 0.6,51.1 C0.6,51.1 0.6,51.1 0.6,51.1 C0.5,51.2 0.5,51.2 0.5,51.3 C0.5,51.3 0.4,51.4 0.4,51.4 C0.4,51.4 0.4,51.4 0.4,51.4 C0.4,51.4 0.4,51.4 0.4,51.4 C0.4,51.5 0.3,51.5 0.3,51.6 C0.3,51.7 0.2,51.7 0.2,51.8 C0.2,51.8 0.2,51.8 0.2,51.8 C0.2,51.9 0.2,51.9 0.1,52 C0.1,52 0.1,52 0.1,52 C0.1,52.1 0.1,52.1 0.1,52.2 C0.1,52.2 0.1,52.2 0.1,52.2 C0.1,52.3 0.1,52.3 0.1,52.4 C0.1,52.5 0.1,52.5 0.1,52.6 C0.1,52.6 0.1,52.6 0.1,52.6 C0.1,52.6 0.1,52.6 0.1,52.6 C0,52.8 0,52.9 0,52.9 Z" id="Path"></path>
        </g>
    </g>
</svg>