<?xml version="1.0" encoding="utf-8"?>
<!-- Generator: Adobe Illustrator 20.1.0, SVG Export Plug-In . SVG Version: 6.00 Build 0)  -->
<svg version="1.1" id="Layer_1" xmlns="http://www.w3.org/2000/svg" xmlns:xlink="http://www.w3.org/1999/xlink" x="0px" y="0px"
	 viewBox="0 0 60 30" enable-background="new 0 0 60 30" xml:space="preserve">
<g>
	<path d="M27.8,11c0-0.1,0.1-0.2,0.1-0.3c0.1-0.3,0.1-0.6,0.1-0.9c0-1.8-1.5-3.2-3.2-3.2c-1.8,0-3.2,1.5-3.2,3.2
		c0,0.3,0,0.6,0.1,0.9c0,0.1,0.1,0.2,0.1,0.3l0.1,0.2l2.9,5.4l2.5-4.6c0.5,0.2,1.7,0.7,2.1,1.6c0.2,0.5,0.1,1-0.3,1.6
		c-0.9,1.3-1,2.6-0.4,3.6c0.5,0.8,1.6,1.2,2.9,1.2c0.5,0,1-0.1,1.6-0.2l2,3.7l2.9-5.4l0.1-0.2c0-0.1,0.1-0.2,0.1-0.3
		c0.1-0.3,0.1-0.6,0.1-0.9c0-1.8-1.5-3.2-3.2-3.2c-1.8,0-3.2,1.5-3.2,3.2c0,0.3,0,0.6,0.1,0.9c0,0.1,0.1,0.2,0.1,0.3l0.1,0.2l0.6,1
		c-1.7,0.3-2.9,0-3.5-0.8c-0.4-0.7-0.3-1.6,0.4-2.7c0.5-0.8,0.6-1.5,0.4-2.2c-0.4-1.1-1.8-1.8-2.4-2l0.1-0.1L27.8,11z M32.7,16.6
		c0-1.4,1.1-2.5,2.5-2.5c1.4,0,2.5,1.1,2.5,2.5c0,0.2,0,0.4-0.1,0.7c0,0.1-0.1,0.2-0.1,0.2l-0.1,0.2l-2.2,4.1L33,17.7l-0.1-0.2
		c0-0.1-0.1-0.2-0.1-0.2C32.7,17.1,32.7,16.9,32.7,16.6z M24.8,15l-2.2-4.1l-0.1-0.2c0-0.1-0.1-0.2-0.1-0.2
		c-0.1-0.2-0.1-0.4-0.1-0.7c0-1.4,1.1-2.5,2.5-2.5c1.4,0,2.5,1.1,2.5,2.5c0,0.2,0,0.4-0.1,0.7c0,0.1-0.1,0.2-0.1,0.2L27,10.9
		L24.8,15z"/>
	<path d="M24.8,8.3c-0.8,0-1.4,0.6-1.4,1.4c0,0.8,0.6,1.4,1.4,1.4c0.8,0,1.4-0.6,1.4-1.4C26.2,9,25.6,8.3,24.8,8.3z M24.8,10.4
		c-0.4,0-0.7-0.3-0.7-0.7s0.3-0.7,0.7-0.7c0.4,0,0.7,0.3,0.7,0.7C25.5,10.1,25.2,10.4,24.8,10.4z"/>
	<path d="M35.2,18c0.8,0,1.4-0.6,1.4-1.4c0-0.8-0.6-1.4-1.4-1.4c-0.8,0-1.4,0.6-1.4,1.4C33.8,17.4,34.4,18,35.2,18z M35.2,15.9
		c0.4,0,0.7,0.3,0.7,0.7c0,0.4-0.3,0.7-0.7,0.7c-0.4,0-0.7-0.3-0.7-0.7C34.5,16.2,34.8,15.9,35.2,15.9z"/>
</g>
<polygon points="51.4,16.9 52,17.5 55.6,13.6 59.5,17.3 60,16.7 55.5,12.5 "/>
<polygon points="0,16.9 0.6,17.5 4.2,13.6 8.1,17.3 8.6,16.7 4.1,12.5 "/>
</svg>
